<?xml version="1.0" standalone="no"?>
<!DOCTYPE svg PUBLIC "-//W3C//DTD SVG 20010904//EN"
 "http://www.w3.org/TR/2001/REC-SVG-20010904/DTD/svg10.dtd">
<svg version="1.0" xmlns="http://www.w3.org/2000/svg"
 width="1280.000000pt" height="656.000000pt" viewBox="0 0 1280.000000 656.000000"
 preserveAspectRatio="xMidYMid meet">
<metadata>
Created by potrace 1.15, written by Peter Selinger 2001-2017
</metadata>
<g transform="translate(0.000000,656.000000) scale(0.100000,-0.100000)"
fill="#223377" stroke="#fff">
<path d="M6345 6554 c-169 -41 -256 -84 -347 -171 -118 -114 -169 -245 -169
-429 1 -167 46 -296 156 -441 28 -37 81 -108 118 -157 119 -156 162 -251 187
-409 11 -69 10 -210 -2 -222 -15 -15 -145 -27 -373 -35 -300 -9 -333 -16 -391
-83 -33 -39 -84 -138 -228 -440 -60 -127 -210 -360 -333 -516 -162 -205 -400
-419 -653 -586 -320 -211 -620 -357 -1295 -630 -923 -372 -1099 -453 -1880
-858 -491 -255 -646 -352 -816 -515 -152 -146 -241 -290 -290 -472 -18 -68
-23 -111 -23 -215 0 -146 16 -207 75 -277 29 -36 33 -38 89 -38 86 0 156 30
307 134 205 140 257 171 325 193 63 20 75 20 2958 12 4693 -13 6989 -15 7420
-5 542 11 734 -5 874 -75 34 -16 120 -73 191 -125 205 -150 298 -194 417 -194
l47 0 37 74 c68 139 69 298 4 478 -100 274 -262 450 -669 728 -84 58 -210 147
-279 198 -69 50 -131 92 -138 92 -21 0 -170 49 -269 88 -49 19 -184 80 -300
135 -305 144 -413 191 -880 377 -548 219 -728 296 -1030 444 -369 180 -639
340 -895 529 -463 342 -800 756 -992 1217 -96 231 -132 277 -241 312 -17 5
-142 14 -277 18 -254 9 -326 19 -316 47 16 40 28 164 22 223 -15 144 -79 277
-236 489 -195 263 -237 362 -228 535 4 77 11 105 36 159 60 130 164 197 317
205 201 10 371 -78 467 -241 86 -148 131 -184 216 -174 54 6 72 26 72 79 0 76
-48 150 -209 320 -157 166 -259 216 -451 223 -58 2 -114 2 -125 -1z m88 -3080
c126 -35 224 -86 492 -256 316 -201 389 -243 1480 -848 1580 -877 1987 -1110
2725 -1558 242 -147 314 -195 265 -178 -39 15 -1572 18 -2685 7 -974 -10
-1261 -9 -2020 4 -534 10 -1766 19 -3107 24 -1222 4 -2225 9 -2227 12 -15 14
1132 666 2724 1549 1018 564 1552 865 1970 1108 151 88 279 160 283 161 4 1
49 -11 100 -25z"/>
</g>
</svg>
